<svg width="1280" height="720" xmlns="http://www.w3.org/2000/svg" xmlns:xlink="http://www.w3.org/1999/xlink" overflow="hidden"><defs><clipPath id="clip0"><rect x="0" y="0" width="1280" height="720"/></clipPath></defs><g clip-path="url(#clip0)"><rect x="0" y="0" width="1280" height="720" fill="#FFFFFF"/><rect x="201.5" y="91.5001" width="1039" height="559" stroke="#2F528F" stroke-width="1.33333" stroke-miterlimit="8" fill="#4472C4"/><text fill="#FFFFFF" font-family="Yu Gothic,Yu Gothic_MSFontService,sans-serif" font-weight="400" font-size="24" transform="translate(600.925 117)">&lt;<tspan font-size="24" x="17.3334" y="0">W</tspan><tspan font-size="24" x="39.6667" y="0">ebSerialProvider</tspan><tspan font-size="24" x="221.833" y="0">&gt;</tspan></text><rect x="218.5" y="101.5" width="283" height="37" stroke="#2F528F" stroke-width="1.33333" stroke-miterlimit="8" fill="#4472C4"/><text fill="#FFFFFF" font-family="Yu Gothic,Yu Gothic_MSFontService,sans-serif" font-weight="400" font-size="24" transform="translate(232.426 127)">&lt;<tspan font-size="24" x="17.3333" y="0">W</tspan><tspan font-size="24" x="39.6667" y="0">ebSerialIoContext</tspan><tspan font-size="24" x="236.333" y="0">&gt;</tspan></text><rect x="186.5" y="58.5001" width="1071" height="606" stroke="#4472C4" stroke-width="1.33333" stroke-miterlimit="8" fill="none"/><text font-family="Yu Gothic,Yu Gothic_MSFontService,sans-serif" font-weight="400" font-size="24" transform="translate(682.273 85)">&lt;App&gt;</text><rect x="14.5001" y="153.5" width="148" height="82" stroke="#2F528F" stroke-width="1.33333" stroke-miterlimit="8" fill="#4472C4"/><text fill="#FFFFFF" font-family="Yu Gothic,Yu Gothic_MSFontService,sans-serif" font-weight="400" font-size="21" transform="translate(44.1944 178)">Provided<tspan font-size="21" x="10.6667" y="25">b</tspan><tspan font-size="21" x="23" y="25">y this </tspan><tspan font-size="21" x="2.41333" y="51">package</tspan></text><rect x="218.5" y="148.5" width="1007" height="488" stroke="#4472C4" stroke-width="1.33333" stroke-miterlimit="8" fill="#D9D9D9"/><text font-family="Yu Gothic,Yu Gothic_MSFontService,sans-serif" font-weight="400" font-size="24" transform="translate(620.926 175)">&lt;<tspan font-size="24" x="17.3334" y="0">OtherProviders</tspan>&gt;</text><rect x="370.5" y="197.5" width="836" height="424" stroke="#4472C4" stroke-width="1.33333" stroke-miterlimit="8" fill="#FFFFFF"/><text font-family="Yu Gothic,Yu Gothic_MSFontService,sans-serif" font-weight="400" font-size="24" transform="translate(665.417 224)">&lt;<tspan font-size="24" x="17.3334" y="0">WebSerialTerminal</tspan>&gt;</text><rect x="385.5" y="206.5" width="194" height="38" stroke="#2F528F" stroke-width="1.33333" stroke-miterlimit="8" fill="#4472C4"/><text fill="#FFFFFF" font-family="Yu Gothic,Yu Gothic_MSFontService,sans-serif" font-weight="400" font-size="24" transform="translate(406.038 233)">useWebSerial</text><rect x="418.5" y="566.5" width="229" height="38" stroke="#41719C" stroke-width="1.33333" stroke-miterlimit="8" fill="#FFFFFF"/><text font-family="Yu Gothic,Yu Gothic_MSFontService,sans-serif" font-weight="400" font-size="24" transform="translate(434.921 592)">OpenClose<tspan font-size="24" x="120.5" y="0">Button</tspan></text><rect x="679.5" y="567.5" width="219" height="38" stroke="#41719C" stroke-width="1.33333" stroke-miterlimit="8" fill="#FFFFFF"/><text font-family="Yu Gothic,Yu Gothic_MSFontService,sans-serif" font-weight="400" font-size="24" transform="translate(722.911 594)">SendButton</text><rect x="962.5" y="566.5" width="219" height="38" stroke="#41719C" stroke-width="1.33333" stroke-miterlimit="8" fill="#FFFFFF"/><text font-family="Yu Gothic,Yu Gothic_MSFontService,sans-serif" font-weight="400" font-size="24" transform="translate(1014.12 593)">RxMonitor</text><rect x="385.5" y="287.5" width="140" height="38" stroke="#2F528F" stroke-width="1.33333" stroke-miterlimit="8" fill="#4472C4"/><text fill="#FFFFFF" font-family="Yu Gothic,Yu Gothic_MSFontService,sans-serif" font-weight="400" font-size="24" transform="translate(394.955 313)">openPort<tspan font-size="24" x="101.333" y="0">(</tspan><tspan font-size="24" x="110.667" y="0">)</tspan></text><rect x="537.5" y="287.5" width="143" height="38" stroke="#2F528F" stroke-width="1.33333" stroke-miterlimit="8" fill="#4472C4"/><text fill="#FFFFFF" font-family="Yu Gothic,Yu Gothic_MSFontService,sans-serif" font-weight="400" font-size="24" transform="translate(546.914 313)">closePort<tspan font-size="24" x="104.167" y="0">()</tspan></text><rect x="692.5" y="287.5" width="193" height="38" stroke="#2F528F" stroke-width="1.33333" stroke-miterlimit="8" fill="#4472C4"/><text fill="#FFFFFF" font-family="Yu Gothic,Yu Gothic_MSFontService,sans-serif" font-weight="400" font-size="24" transform="translate(702.66 313)">sendMessage<tspan font-size="24" x="152.833" y="0">()</tspan></text><rect x="960.5" y="287.5" width="223" height="38" stroke="#2F528F" stroke-width="1.33333" stroke-miterlimit="8" fill="#4472C4"/><text fill="#FFFFFF" font-family="Yu Gothic,Yu Gothic_MSFontService,sans-serif" font-weight="400" font-size="24" transform="translate(969.956 313)">updateCallbacks<tspan font-size="24" x="183.833" y="0">()</tspan></text><rect x="798.5" y="359.5" width="125" height="38" stroke="#41719C" stroke-width="1.33333" stroke-miterlimit="8" fill="#FFFFFF"/><text font-family="Yu Gothic,Yu Gothic_MSFontService,sans-serif" font-weight="400" font-size="24" transform="translate(807.862 386)">onOpen<tspan font-size="24" x="86.3333" y="0">()</tspan></text><rect x="935.5" y="359.5" width="129" height="38" stroke="#41719C" stroke-width="1.33333" stroke-miterlimit="8" fill="#FFFFFF"/><text font-family="Yu Gothic,Yu Gothic_MSFontService,sans-serif" font-weight="400" font-size="24" transform="translate(945.588 386)">onClose<tspan font-size="24" x="89.1666" y="0">()</tspan></text><rect x="988.5" y="482.5" width="166" height="38" stroke="#41719C" stroke-width="1.33333" stroke-miterlimit="8" fill="#FFFFFF"/><text font-family="Yu Gothic,Yu Gothic_MSFontService,sans-serif" font-weight="400" font-size="24" transform="translate(998.372 508)">onMessage()</text><rect x="1076.5" y="359.5" width="121" height="37" stroke="#41719C" stroke-width="1.33333" stroke-miterlimit="8" fill="#FFFFFF"/><text font-family="Yu Gothic,Yu Gothic_MSFontService,sans-serif" font-weight="400" font-size="24" transform="translate(1086.51 385)">onError<tspan font-size="24" x="81.8333" y="0">()</tspan></text><path d="M842.5 427.833C842.5 424.336 845.336 421.5 848.833 421.5L1011.17 421.5C1014.66 421.5 1017.5 424.336 1017.5 427.833L1017.5 453.167C1017.5 456.664 1014.66 459.5 1011.17 459.5L848.833 459.5C845.336 459.5 842.5 456.664 842.5 453.167Z" stroke="#41719C" stroke-width="1.33333" stroke-miterlimit="8" fill="#FFFFFF" fill-rule="evenodd"/><text font-family="Yu Gothic,Yu Gothic_MSFontService,sans-serif" font-weight="400" font-size="24" transform="translate(860.9 448)">isConnected</text><path d="M0.282081-0.177599 23.8957 37.328 23.3315 37.6832-0.282081 0.177599ZM26.2882 34.2461 27.1656 43.1472 19.5182 38.5084Z" fill="#4472C4" transform="matrix(-1 0 0 1 482.666 244.5)"/><path d="M482.608 244.185 602.509 285.175 602.293 285.806 482.392 244.815ZM602.433 281.274 608.709 287.647 599.846 288.844Z" fill="#4472C4"/><path d="M482.547 244.17 782.235 286.387 782.142 287.047 482.454 244.83ZM781.426 282.57 788.79 287.647 780.31 290.492Z" fill="#4472C4"/><path d="M482.524 244.168 1064.96 286.828 1064.91 287.493 482.476 244.832ZM1063.9 283.074 1071.58 287.647 1063.31 291.052Z" fill="#4472C4"/><path d="M0.333333-2.22529e-07 0.333337 5.33333-0.33333 5.33333-0.333333 2.22529e-07ZM0.333338 7.33333 0.333342 12.6667-0.333325 12.6667-0.333328 7.33333ZM0.333343 14.6667 0.333347 20-0.33332 20-0.333324 14.6667ZM0.333348 22 0.333352 27.3333-0.333315 27.3333-0.333319 22ZM0.333353 29.3333 0.333356 34.6667-0.33331 34.6667-0.333314 29.3333ZM0.333358 36.6667 0.333361 42-0.333305 42-0.333309 36.6667ZM0.333363 44 0.333366 49.3333-0.3333 49.3333-0.333304 44ZM0.333368 51.3333 0.333371 56.6667-0.333295 56.6667-0.333299 51.3333ZM0.333372 58.6667 0.333376 64-0.333291 64-0.333294 58.6667ZM0.333377 66 0.333381 71.3333-0.333286 71.3333-0.333289 66ZM0.333382 73.3333 0.333386 78.6667-0.333281 78.6667-0.333284 73.3333ZM0.333387 80.6667 0.333391 86-0.333276 86-0.333279 80.6667ZM0.333392 88 0.333396 93.3333-0.333271 93.3333-0.333275 88ZM0.333397 95.3333 0.333401 100.667-0.333266 100.667-0.33327 95.3333ZM0.333402 102.667 0.333405 108-0.333261 108-0.333265 102.667ZM0.333407 110 0.33341 115.333-0.333256 115.333-0.33326 110ZM0.333412 117.333 0.333415 122.667-0.333251 122.667-0.333255 117.333ZM0.333417 124.667 0.33342 130-0.333247 130-0.33325 124.667ZM0.333421 132 0.333425 137.333-0.333242 137.333-0.333245 132ZM0.333426 139.333 0.33343 144.667-0.333237 144.667-0.33324 139.333ZM0.333431 146.667 0.333434 150.597-0.333233 150.597-0.333235 146.667ZM4.0001 149.263 0.000104987 157.263-3.9999 149.263Z" fill="#4472C4" transform="matrix(1 0 0 -1 1071.5 482.763)"/><path d="M1136.9 359.574 1132.16 357.131 1132.46 356.538 1137.2 358.981ZM1130.38 356.215 1125.64 353.772 1125.94 353.179 1130.69 355.622ZM1123.86 352.856 1119.12 350.413 1119.43 349.82 1124.17 352.263ZM1117.34 349.497 1112.6 347.054 1112.91 346.461 1117.65 348.904ZM1110.82 346.138 1106.08 343.695 1106.39 343.102 1111.13 345.545ZM1104.3 342.779 1099.56 340.336 1099.87 339.743 1104.61 342.186ZM1097.79 339.42 1093.04 336.977 1093.35 336.384 1098.09 338.827ZM1091.27 336.061 1086.53 333.618 1086.83 333.025 1091.57 335.468ZM1084.75 332.702 1080.01 330.259 1080.31 329.666 1085.05 332.109ZM1078.23 329.343 1077.27 328.85 1077.58 328.257 1078.53 328.75ZM1076.78 332.72 1071.5 325.5 1080.44 325.609Z" fill="#4472C4"/><path d="M0.144223-0.300518 4.9525 2.00705 4.66406 2.60809-0.144223 0.300518ZM6.75561 2.87239 11.5639 5.17996 11.2754 5.78099 6.46716 3.47342ZM13.367 6.04529 18.1753 8.35286 17.8868 8.9539 13.0786 6.64633ZM19.9784 9.2182 24.7867 11.5258 24.4982 12.1268 19.6899 9.81923ZM26.5898 12.3911 31.3981 14.6987 31.1096 15.2997 26.3013 12.9921ZM33.2012 15.564 38.0094 17.8716 37.721 18.4726 32.9127 16.165ZM39.8125 18.7369 44.6208 21.0445 44.3324 21.6455 39.5241 19.338ZM46.4239 21.9098 51.2322 24.2174 50.9438 24.8184 46.1355 22.5109ZM53.0353 25.0827 57.8436 27.3903 57.5552 27.9913 52.7469 25.6838ZM59.6467 28.2556 64.455 30.5632 64.1665 31.1642 59.3583 28.8567ZM66.2195 27.3429 71.7012 34.4105 62.7581 34.5554Z" fill="#4472C4" transform="matrix(1 0 0 -1 1000.5 359.911)"/><path d="M0.053691-0.328981 5.31738 0.530075 5.21 1.18804-0.053691 0.328981ZM7.29127 0.852221 12.555 1.71128 12.4476 2.36924 7.18389 1.51018ZM14.5288 2.03342 19.7925 2.89248 19.6852 3.55044 14.4215 2.69138ZM21.7664 3.21462 27.0301 4.07368 26.9227 4.73164 21.659 3.87259ZM29.004 4.39583 34.2677 5.25488 34.1603 5.91284 28.8966 5.05379ZM36.2416 5.57703 41.5053 6.43608 41.3979 7.09405 36.1342 6.23499ZM43.4792 6.75823 48.7429 7.61729 48.6355 8.27525 43.3718 7.41619ZM50.7167 7.93943 55.9804 8.79849 55.8731 9.45645 50.6094 8.59739ZM57.9543 9.12063 63.218 9.97969 63.1106 10.6377 57.8469 9.77859ZM65.1919 10.3018 70.4556 11.1609 70.3482 11.8189 65.0845 10.9598ZM72.4295 11.483 77.6932 12.3421 77.5858 13.0001 72.3221 12.141ZM79.6671 12.6642 84.9308 13.5233 84.8234 14.1813 79.5597 13.3222ZM86.9046 13.8454 92.1683 14.7045 92.0609 15.3625 86.7972 14.5034ZM94.1422 15.0266 99.4059 15.8857 99.2985 16.5437 94.0348 15.6846ZM101.38 16.2078 106.643 17.0669 106.536 17.7249 101.272 16.8658ZM108.617 17.389 113.881 18.2481 113.774 18.9061 108.51 18.047ZM115.855 18.5702 121.119 19.4293 121.011 20.0873 115.748 19.2282ZM123.093 19.7515 128.356 20.6105 128.249 21.2685 122.985 20.4094ZM130.33 20.9327 135.594 21.7917 135.486 22.4497 130.223 21.5906ZM137.568 22.1139 142.831 22.9729 142.724 23.6309 137.46 22.7718ZM144.805 23.2951 150.069 24.1541 149.962 24.8121 144.698 23.953ZM152.043 24.4763 157.307 25.3353 157.199 25.9933 151.935 25.1342ZM159.28 25.6575 164.544 26.5165 164.437 27.1745 159.173 26.3154ZM166.518 26.8387 171.782 27.6977 171.674 28.3557 166.411 27.4966ZM173.756 28.0199 179.019 28.8789 178.912 29.5369 173.648 28.6778ZM180.993 29.2011 186.257 30.0601 186.149 30.7181 180.886 29.859ZM188.231 30.3823 193.494 31.2413 193.387 31.8993 188.123 31.0402ZM195.468 31.5635 200.732 32.4225 200.625 33.0805 195.361 32.2214ZM202.706 32.7447 204.318 33.0077 204.21 33.6657 202.599 33.4026ZM203.592 29.1741 210.843 34.4105 202.304 37.0697Z" fill="#4472C4" transform="matrix(1 0 0 -1 860.5 359.911)"/><path d="M1073 520 1073 556.551 1069 556.551 1069 520ZM1077 554.551 1071 566.551 1065 554.551Z" fill="#4472C4"/><path d="M2-8.66045e-07 2.0001 232.451-1.9999 232.451-2 8.66045e-07ZM6.0001 230.451 0.000104987 242.451-5.9999 230.451Z" fill="#4472C4" transform="matrix(1 0 0 -1 788 567.451)"/><path d="M0.20251-0.264766 136.23 103.778 135.825 104.308-0.20251 0.264766ZM137.399 100.055 141.323 108.093 132.538 106.41Z" fill="#4472C4" transform="matrix(-1 0 0 1 929.823 459.5)"/><path d="M0.109866-0.314707 63.5868 21.8455 63.367 22.4749-0.109866 0.314707ZM63.5364 17.9442 69.771 24.3575 60.8997 25.4972Z" fill="#4472C4" transform="matrix(-1 0 0 1 1000.27 397.5)"/><path d="M860.61 397.186 923.692 419.334 923.471 419.963 860.39 397.815ZM923.648 415.433 929.871 421.858 920.998 422.981Z" fill="#4472C4"/><path d="M456.904 324.387 531.471 555.94 527.663 557.166 453.096 325.613ZM534.665 552.81 532.632 566.072 523.243 556.489Z" fill="#4472C4"/><path d="M1.90804-0.599488 74.6531 230.932 70.8371 232.131-1.90804 0.599488ZM77.8697 227.825 75.7425 241.072 66.4214 231.422Z" fill="#4472C4" transform="matrix(-1 0 0 1 608.742 325)"/><rect x="234.5" y="197.5" width="124" height="424" stroke="#4472C4" stroke-width="1.33333" stroke-miterlimit="8" fill="#D9D9D9"/><text font-family="Yu Gothic,Yu Gothic_MSFontService,sans-serif" font-weight="400" font-size="16" transform="translate(269.355 217)">&lt;Other<tspan font-size="16" x="-26" y="19">Components&gt;</tspan></text><rect x="14.5001" y="251.5" width="148" height="87" stroke="#2F528F" stroke-width="1.33333" stroke-miterlimit="8" fill="#FFFFFF"/><text font-family="Yu Gothic,Yu Gothic_MSFontService,sans-serif" font-weight="400" font-size="21" transform="translate(44.1943 276)">Provided<tspan font-size="21" x="32" y="25">a</tspan><tspan font-size="21" x="43.8333" y="25">s</tspan><tspan font-size="21" x="2.16666" y="51">exampl</tspan><tspan font-size="21" x="72.6667" y="51">e</tspan></text><rect x="14.5001" y="353.5" width="148" height="87" stroke="#2F528F" stroke-width="1.33333" stroke-miterlimit="8" fill="#D9D9D9"/><text font-family="Yu Gothic,Yu Gothic_MSFontService,sans-serif" font-weight="400" font-size="21" transform="translate(42.4011 378)">Assumed<tspan font-size="21" x="9.91333" y="25">f</tspan><tspan font-size="21" x="17.2467" y="25">or real</tspan><tspan font-size="21" x="4.91333" y="51">usecase</tspan></text></g></svg>